PathFileType	4	(X/Y/Z)	/Users/itak/Documents/Research/Walk-IL/dataset/trc/00157_00007.trc
DataRate	CameraRate	NumFrames	NumMarkers	Units	OrigDataRate	OrigDataStartFrame	OrigNumFrames
100.000000	100.000000	4	54	mm	100.000000	152	611
Frame#	Time	RPSI			LPSI			L3			STRN			T10			C7			CLAV			RBAK			LBAK			LSHO			LUPA			LAEL			LAOL			LWTS			LWPS			LFRA			LIFD			LHPS			LHTS			RSHO			RUPA			RAEL			RAOL			RWTS			RWPS			RFRA			RIFD			RHTS			RHPS			RBHD			LFHD			RFHD			LBHD			LHIP			RHIP			RASI			LASI			LKNE			LTHI			LANK			LTIP			LTOE			LMT1			LMT5			LHEE			RKNE			RTHI			RANK			RTIP			RTOE			RMT1			RMT5			RHEE			*53			
		X1	Y1	Z1	X2	Y2	Z2	X3	Y3	Z3	X4	Y4	Z4	X5	Y5	Z5	X6	Y6	Z6	X7	Y7	Z7	X8	Y8	Z8	X9	Y9	Z9	X10	Y10	Z10	X11	Y11	Z11	X12	Y12	Z12	X13	Y13	Z13	X14	Y14	Z14	X15	Y15	Z15	X16	Y16	Z16	X17	Y17	Z17	X18	Y18	Z18	X19	Y19	Z19	X20	Y20	Z20	X21	Y21	Z21	X22	Y22	Z22	X23	Y23	Z23	X24	Y24	Z24	X25	Y25	Z25	X26	Y26	Z26	X27	Y27	Z27	X28	Y28	Z28	X29	Y29	Z29	X30	Y30	Z30	X31	Y31	Z31	X32	Y32	Z32	X33	Y33	Z33	X34	Y34	Z34	X35	Y35	Z35	X36	Y36	Z36	X37	Y37	Z37	X38	Y38	Z38	X39	Y39	Z39	X40	Y40	Z40	X41	Y41	Z41	X42	Y42	Z42	X43	Y43	Z43	X44	Y44	Z44	X45	Y45	Z45	X46	Y46	Z46	X47	Y47	Z47	X48	Y48	Z48	X49	Y49	Z49	X50	Y50	Z50	X51	Y51	Z51	X52	Y52	Z52	X53	Y53	Z53	X54	Y54	Z54	

153	1.52	-1308.516235351562	1125.029174804688	-525.1979370117188	-1305.743530273438	1124.021484375	-659.7727661132812	-1314.98291015625	1155.419677734375	-595.3652954101562	-1106.61865234375	1358.333862304688	-595.6450805664062	-1357.749633789062	1303.691040039062	-601.3262939453125	-1329.10791015625	1596.942749023438	-618.4454956054688	-1146.158569335938	1492.279052734375	-602.8348999023438	-1382.84423828125	1413.156127929688	-530.0430908203125	-1333.78955078125	1574.788940429688	-720.4544067382812	-1245.403442382812	1560.771606445312	-785.9903564453125	-1260.710815429688	1426.948608398438	-853.8003540039062	-1235.781616210938	1205.792236328125	-865.6803588867188	-1305.701049804688	1193.901489257812	-814.5454711914062	-1133.68408203125	953.6395263671875	-801.055908203125	-1211.086669921875	924.3456420898438	-834.4126586914062	-1214.930419921875	1090.10546875	-862.8181762695312	-1117.58056640625	761.6905517578125	-770.780517578125	-1179.480712890625	850.449951171875	-828.311279296875	-1115.347290039062	865.8049926757812	-805.6876220703125	-1281.633544921875	1582.379760742188	-435.9219055175781	-1300.715209960938	1508.879028320312	-372.4629821777344	-1304.816772460938	1213.281616210938	-349.7195434570312	-1307.272338867188	1211.819702148438	-446.4830322265625	-1153.442138671875	975.61572265625	-356.37646484375	-1228.448608398438	956.2919921875	-328.060546875	-1279.912353515625	1141.098876953125	-332.8482666015625	-1121.717163085938	781.743896484375	-370.7355651855469	-1121.058959960938	868.434326171875	-349.1432189941406	-1188.675903320312	857.7178955078125	-321.8956298828125	-1291.001708984375	1772.77685546875	-540.1935424804688	-1119.7109375	1835.932373046875	-662.6951293945312	-1127.014770507812	1839.254272460938	-533.1282348632812	-1291.086791992188	1773.463134765625	-675.7632446289062	-1213.657104492188	1033.547607421875	-764.90576171875	-1184.144409179688	1032.435180664062	-402.2611999511719	-1102.26416015625	1103.792846679688	-455.933349609375	-1107.510131835938	1098.87060546875	-722.3495483398438	-1188.081420898438	531.6822509765625	-718.6268920898438	-1207.341186523438	676.5485229492188	-752.302001953125	-1327.73876953125	34.80572891235352	-698.3885498046875	-1299.2822265625	286.7178344726562	-738.123046875	-1096.903564453125	36.72851943969727	-642.8387451171875	-1178.545166015625	40.28420257568359	-609.1547241210938	-1203.07958984375	33.16615295410156	-724.8858642578125	-1396.359252929688	35.37922286987305	-636.0618896484375	-1201.12158203125	537.32373046875	-424.3232116699219	-1171.9306640625	816.5140991210938	-404.6699523925781	-1325.059692382812	29.00224113464355	-424.9076538085938	-1233.481811523438	405.3794555664062	-407.6854858398438	-1094.257568359375	41.7198486328125	-482.3181457519531	-1156.054809570312	30.85127258300781	-523.5887451171875	-1190.88330078125	38.56866073608398	-408.1585998535156	-1383.947998046875	29.74122428894043	-471.8825073242188	nan	nan	nan	
154	1.53	-1307.42724609375	1124.839721679688	-525.9360961914062	-1304.903198242188	1123.801879882812	-660.5467529296875	-1313.975341796875	1155.175415039062	-596.0853881835938	-1105.925659179688	1358.193481445312	-596.4729614257812	-1356.975463867188	1303.3642578125	-601.947998046875	-1328.538940429688	1596.622802734375	-618.8501586914062	-1145.57080078125	1492.119384765625	-603.5787963867188	-1382.0419921875	1412.8349609375	-530.45947265625	-1333.419067382812	1574.547119140625	-720.87060546875	-1245.13037109375	1560.604736328125	-786.5771484375	-1260.446899414062	1426.816040039062	-854.4008178710938	-1235.369873046875	1205.666137695312	-866.403564453125	-1305.215209960938	1193.692138671875	-815.182861328125	-1132.833862304688	953.6544189453125	-801.909912109375	-1210.2626953125	924.2527465820312	-835.2457275390625	-1214.374877929688	1090.004760742188	-863.5888671875	-1116.480346679688	761.7117309570312	-771.7423095703125	-1178.49072265625	850.3919067382812	-829.1905517578125	-1114.403930664062	865.8377685546875	-806.6076049804688	-1280.832641601562	1582.060424804688	-436.4412231445312	-1299.808959960938	1508.55029296875	-372.9680480957031	-1303.859619140625	1213.011962890625	-350.14794921875	-1306.395263671875	1211.526000976562	-446.8937377929688	-1152.630859375	975.2501220703125	-356.8565979003906	-1227.640014648438	955.9818725585938	-328.4624938964844	-1278.9921875	1140.831787109375	-333.2864074707031	-1121.1240234375	781.3385009765625	-371.2147827148438	-1120.457763671875	868.0055541992188	-349.6894226074219	-1187.967163085938	857.37646484375	-322.3147277832031	-1290.04931640625	1772.7255859375	-540.7325439453125	-1118.576782226562	1835.510375976562	-663.1867065429688	-1125.92431640625	1838.830932617188	-533.6181030273438	-1290.130249023438	1773.3828125	-676.3081665039062	-1212.769653320312	1033.345458984375	-765.7852783203125	-1182.944702148438	1032.236328125	-403.1147155761719	-1101.173095703125	1103.66943359375	-456.8692321777344	-1106.737182617188	1098.773071289062	-723.3137817382812	-1187.011352539062	531.4389038085938	-718.856689453125	-1206.194458007812	676.2716064453125	-752.7689819335938	-1327.713256835938	34.81517791748047	-698.3934936523438	-1298.4931640625	286.5278625488281	-738.3220825195312	-1096.951538085938	36.74497985839844	-642.7439575195312	-1178.599731445312	40.23809432983398	-609.0616455078125	-1203.09423828125	33.21273803710938	-724.7977905273438	-1396.362060546875	35.34712600708008	-636.1177368164062	-1199.703491210938	537.1810913085938	-424.922119140625	-1170.561279296875	816.3445434570312	-405.4791259765625	-1325.081909179688	28.96475601196289	-424.8760070800781	-1232.471313476562	405.2069702148438	-408.1880187988281	-1094.300048828125	41.81972503662109	-482.3077392578125	-1156.118774414062	30.95037460327148	-523.487548828125	-1190.935424804688	38.55162048339844	-408.0988464355469	-1383.989868164062	29.7238655090332	-471.8544006347656	nan	nan	nan	
155	1.54	-1306.2939453125	1124.632202148438	-526.6979370117188	-1304.00634765625	1123.581665039062	-661.3436889648438	-1312.878051757812	1154.924438476562	-596.8230590820312	-1105.1708984375	1358.055541992188	-597.3305053710938	-1356.14453125	1303.026000976562	-602.5995483398438	-1327.927001953125	1596.296875	-619.2888793945312	-1144.921142578125	1491.953857421875	-604.3489990234375	-1381.1728515625	1412.4736328125	-530.9071655273438	-1332.993774414062	1574.3017578125	-721.3141479492188	-1244.819213867188	1560.437255859375	-787.205078125	-1260.156860351562	1426.671264648438	-855.0408325195312	-1234.945434570312	1205.526245117188	-867.1432495117188	-1304.706909179688	1193.478637695312	-815.823974609375	-1131.983764648438	953.6500244140625	-802.760498046875	-1209.426879882812	924.1437377929688	-836.0657348632812	-1213.823486328125	1089.88623046875	-864.368408203125	-1115.375854492188	761.7245483398438	-772.6831665039062	-1177.499267578125	850.317138671875	-830.0549926757812	-1113.453369140625	865.8534545898438	-807.5166015625	-1280.002563476562	1581.71923828125	-436.9902954101562	-1298.871826171875	1508.212158203125	-373.504150390625	-1302.85498046875	1212.725952148438	-350.6166076660156	-1305.446044921875	1211.215209960938	-447.3439636230469	-1151.765869140625	974.8651733398438	-357.3345031738281	-1226.790649414062	955.6513671875	-328.8844299316406	-1278.029052734375	1140.550415039062	-333.7587585449219	-1120.505981445312	780.9063110351562	-371.6799926757812	-1119.817260742188	867.5547485351562	-350.2173461914062	-1187.253051757812	857.021240234375	-322.7513427734375	-1289.06396484375	1772.663208007812	-541.3017578125	-1117.378173828125	1835.079345703125	-663.6839599609375	-1124.794189453125	1838.391479492188	-534.129638671875	-1289.130126953125	1773.302856445312	-676.875732421875	-1211.817504882812	1033.1416015625	-766.6912231445312	-1181.673828125	1032.01953125	-404.0134582519531	-1100.01708984375	1103.53955078125	-457.84912109375	-1105.915283203125	1098.67724609375	-724.31494140625	-1186.109619140625	531.216552734375	-719.1615600585938	-1205.164672851562	676.0161743164062	-753.2916259765625	-1327.698364257812	34.80116271972656	-698.412353515625	-1297.855834960938	286.3571166992188	-738.57470703125	-1097.0185546875	36.75525665283203	-642.6476440429688	-1178.658447265625	40.20166778564453	-608.9760131835938	-1203.114013671875	33.24788665771484	-724.724609375	-1396.373168945312	35.30986022949219	-636.189208984375	-1198.068969726562	537.0090942382812	-425.6168212890625	-1168.986572265625	816.1517944335938	-406.3617248535156	-1325.091064453125	28.93154907226562	-424.8583984375	-1231.279907226562	405.0179748535156	-408.7693481445312	-1094.319946289062	41.89770889282227	-482.3226623535156	-1156.174926757812	31.02400016784668	-523.4013671875	-1190.978149414062	38.53528594970703	-408.0505065917969	-1384.018310546875	29.71514129638672	-471.8354187011719	nan	nan	nan	
156	1.55	-1305.11767578125	1124.405517578125	-527.4769287109375	-1303.050170898438	1123.361938476562	-662.1564331054688	-1311.708129882812	1154.671142578125	-597.5758666992188	-1104.355590820312	1357.917724609375	-598.2180786132812	-1355.25146484375	1302.681030273438	-603.2742919921875	-1327.270141601562	1595.973388671875	-619.7664794921875	-1144.206787109375	1491.786987304688	-605.1439208984375	-1380.249877929688	1412.080322265625	-531.396728515625	-1332.5029296875	1574.05224609375	-721.7880249023438	-1244.460693359375	1560.271240234375	-787.8703002929688	-1259.831787109375	1426.511596679688	-855.7178344726562	-1234.49560546875	1205.373046875	-867.8985595703125	-1304.166381835938	1193.262451171875	-816.4696044921875	-1131.137084960938	953.6224365234375	-803.6085815429688	-1208.583984375	924.0167236328125	-836.8739624023438	-1213.26953125	1089.74853515625	-865.1567993164062	-1114.284057617188	761.7191162109375	-773.6049194335938	-1176.522216796875	850.2238159179688	-830.906005859375	-1112.509643554688	865.84375	-808.4198608398438	-1279.140502929688	1581.361083984375	-437.5692443847656	-1297.8974609375	1507.86572265625	-374.0682373046875	-1301.806884765625	1212.425170898438	-351.1285705566406	-1304.429321289062	1210.887939453125	-447.8406677246094	-1150.848266601562	974.4668579101562	-357.8159484863281	-1225.906860351562	955.3043823242188	-329.3318481445312	-1277.020751953125	1140.25537109375	-334.26513671875	-1119.85888671875	780.4531860351562	-372.1306762695312	-1119.124877929688	867.0880737304688	-350.7245788574219	-1186.526977539062	856.6558227539062	-323.2064514160156	-1288.0400390625	1772.58935546875	-541.8989868164062	-1116.116088867188	1834.639526367188	-664.1881103515625	-1123.6201171875	1837.935546875	-534.66259765625	-1288.081909179688	1773.224243164062	-677.4654541015625	-1210.799072265625	1032.93896484375	-767.6234130859375	-1180.332275390625	1031.784301757812	-404.9575500488281	-1098.790893554688	1103.396240234375	-458.870361328125	-1105.041625976562	1098.584106445312	-725.3518676757812	-1185.365356445312	531.0092163085938	-719.5433349609375	-1204.24951171875	675.7798461914062	-753.8734130859375	-1327.69189453125	34.7651481628418	-698.445556640625	-1297.3642578125	286.2025451660156	-738.8782958984375	-1097.09912109375	36.75705718994141	-642.5520629882812	-1178.7216796875	40.17239761352539	-608.8975219726562	-1203.136108398438	33.2723503112793	-724.6655883789062	-1396.389892578125	35.26731491088867	-636.271240234375	-1196.2021484375	536.7965698242188	-426.4130249023438	-1167.211181640625	815.9264526367188	-407.3246154785156	-1325.087768554688	28.90432739257812	-424.8556823730469	-1229.894165039062	404.806640625	-409.4230346679688	-1094.325927734375	41.95660018920898	-482.3514404296875	-1156.221313476562	31.07044792175293	-523.3391723632812	-1191.010986328125	38.51895904541016	-408.0126647949219	-1384.032836914062	29.71882247924805	-471.8290710449219	nan	nan	nan	
